<mxfile host="app.diagrams.net" agent="Mozilla/5.0 (Windows NT 10.0; Win64; x64) AppleWebKit/537.36 (KHTML, like Gecko) Chrome/128.0.0.0 Safari/537.36 Edg/128.0.0.0" version="24.7.6">
  <diagram id="SL2L58OzhDkTRMMmBrpl" name="Page-1">
    <mxGraphModel dx="765" dy="1158" grid="1" gridSize="10" guides="1" tooltips="1" connect="1" arrows="1" fold="1" page="1" pageScale="1" pageWidth="850" pageHeight="1100" math="0" shadow="0">
      <root>
        <mxCell id="0" />
        <mxCell id="1" parent="0" />
        <mxCell id="xynyrZGPAnKqHGhxIo0k-36" value="" style="rounded=1;whiteSpace=wrap;html=1;fillColor=#fff2cc;strokeColor=#d6b656;" vertex="1" parent="1">
          <mxGeometry x="200" y="390" width="380" height="270" as="geometry" />
        </mxCell>
        <mxCell id="xynyrZGPAnKqHGhxIo0k-15" style="rounded=0;orthogonalLoop=1;jettySize=auto;html=1;exitX=1;exitY=0;exitDx=0;exitDy=0;entryX=0;entryY=0.5;entryDx=0;entryDy=0;" edge="1" parent="1" source="xynyrZGPAnKqHGhxIo0k-1" target="xynyrZGPAnKqHGhxIo0k-2">
          <mxGeometry relative="1" as="geometry" />
        </mxCell>
        <mxCell id="xynyrZGPAnKqHGhxIo0k-16" style="edgeStyle=orthogonalEdgeStyle;rounded=0;orthogonalLoop=1;jettySize=auto;html=1;exitX=1;exitY=0.5;exitDx=0;exitDy=0;entryX=0;entryY=0.5;entryDx=0;entryDy=0;" edge="1" parent="1" source="xynyrZGPAnKqHGhxIo0k-1" target="xynyrZGPAnKqHGhxIo0k-3">
          <mxGeometry relative="1" as="geometry" />
        </mxCell>
        <mxCell id="xynyrZGPAnKqHGhxIo0k-17" style="rounded=0;orthogonalLoop=1;jettySize=auto;html=1;exitX=1;exitY=1;exitDx=0;exitDy=0;entryX=0;entryY=0.5;entryDx=0;entryDy=0;" edge="1" parent="1" source="xynyrZGPAnKqHGhxIo0k-1" target="xynyrZGPAnKqHGhxIo0k-4">
          <mxGeometry relative="1" as="geometry" />
        </mxCell>
        <mxCell id="xynyrZGPAnKqHGhxIo0k-1" value="Topic" style="rounded=1;whiteSpace=wrap;html=1;fillColor=#e1d5e7;strokeColor=#9673a6;" vertex="1" parent="1">
          <mxGeometry x="220" y="510" width="80" height="40" as="geometry" />
        </mxCell>
        <mxCell id="xynyrZGPAnKqHGhxIo0k-18" style="rounded=0;orthogonalLoop=1;jettySize=auto;html=1;exitX=1;exitY=0.5;exitDx=0;exitDy=0;entryX=0;entryY=0.5;entryDx=0;entryDy=0;" edge="1" parent="1" source="xynyrZGPAnKqHGhxIo0k-2" target="xynyrZGPAnKqHGhxIo0k-6">
          <mxGeometry relative="1" as="geometry" />
        </mxCell>
        <mxCell id="xynyrZGPAnKqHGhxIo0k-2" value="Subscription" style="rounded=1;whiteSpace=wrap;html=1;fillColor=#d5e8d4;strokeColor=#82b366;" vertex="1" parent="1">
          <mxGeometry x="345" y="450" width="95" height="40" as="geometry" />
        </mxCell>
        <mxCell id="xynyrZGPAnKqHGhxIo0k-19" style="rounded=0;orthogonalLoop=1;jettySize=auto;html=1;exitX=1;exitY=0.25;exitDx=0;exitDy=0;entryX=0;entryY=0.5;entryDx=0;entryDy=0;" edge="1" parent="1" source="xynyrZGPAnKqHGhxIo0k-3" target="xynyrZGPAnKqHGhxIo0k-7">
          <mxGeometry relative="1" as="geometry" />
        </mxCell>
        <mxCell id="xynyrZGPAnKqHGhxIo0k-20" style="rounded=0;orthogonalLoop=1;jettySize=auto;html=1;exitX=1;exitY=0.75;exitDx=0;exitDy=0;entryX=0;entryY=0.5;entryDx=0;entryDy=0;" edge="1" parent="1" source="xynyrZGPAnKqHGhxIo0k-3" target="xynyrZGPAnKqHGhxIo0k-8">
          <mxGeometry relative="1" as="geometry" />
        </mxCell>
        <mxCell id="xynyrZGPAnKqHGhxIo0k-3" value="Subscription" style="rounded=1;whiteSpace=wrap;html=1;fillColor=#d5e8d4;strokeColor=#82b366;" vertex="1" parent="1">
          <mxGeometry x="345" y="510" width="95" height="40" as="geometry" />
        </mxCell>
        <mxCell id="xynyrZGPAnKqHGhxIo0k-22" style="rounded=0;orthogonalLoop=1;jettySize=auto;html=1;exitX=1;exitY=0.5;exitDx=0;exitDy=0;entryX=0;entryY=0.5;entryDx=0;entryDy=0;" edge="1" parent="1" source="xynyrZGPAnKqHGhxIo0k-4" target="xynyrZGPAnKqHGhxIo0k-9">
          <mxGeometry relative="1" as="geometry" />
        </mxCell>
        <mxCell id="xynyrZGPAnKqHGhxIo0k-4" value="Subscription" style="rounded=1;whiteSpace=wrap;html=1;fillColor=#d5e8d4;strokeColor=#82b366;" vertex="1" parent="1">
          <mxGeometry x="345" y="570" width="95" height="40" as="geometry" />
        </mxCell>
        <mxCell id="xynyrZGPAnKqHGhxIo0k-27" style="edgeStyle=orthogonalEdgeStyle;rounded=0;orthogonalLoop=1;jettySize=auto;html=1;entryX=0;entryY=0.5;entryDx=0;entryDy=0;" edge="1" parent="1" source="xynyrZGPAnKqHGhxIo0k-6" target="xynyrZGPAnKqHGhxIo0k-23">
          <mxGeometry relative="1" as="geometry" />
        </mxCell>
        <mxCell id="xynyrZGPAnKqHGhxIo0k-6" value="Agent ID" style="rounded=1;whiteSpace=wrap;html=1;fillColor=#f8cecc;strokeColor=#b85450;" vertex="1" parent="1">
          <mxGeometry x="486" y="420" width="70" height="40" as="geometry" />
        </mxCell>
        <mxCell id="xynyrZGPAnKqHGhxIo0k-28" style="edgeStyle=orthogonalEdgeStyle;rounded=0;orthogonalLoop=1;jettySize=auto;html=1;entryX=0;entryY=0.5;entryDx=0;entryDy=0;" edge="1" parent="1" source="xynyrZGPAnKqHGhxIo0k-7" target="xynyrZGPAnKqHGhxIo0k-24">
          <mxGeometry relative="1" as="geometry" />
        </mxCell>
        <mxCell id="xynyrZGPAnKqHGhxIo0k-7" value="Agent ID" style="rounded=1;whiteSpace=wrap;html=1;fillColor=#f8cecc;strokeColor=#b85450;" vertex="1" parent="1">
          <mxGeometry x="486" y="480" width="70" height="40" as="geometry" />
        </mxCell>
        <mxCell id="xynyrZGPAnKqHGhxIo0k-29" style="edgeStyle=orthogonalEdgeStyle;rounded=0;orthogonalLoop=1;jettySize=auto;html=1;entryX=0;entryY=0.5;entryDx=0;entryDy=0;" edge="1" parent="1" source="xynyrZGPAnKqHGhxIo0k-8" target="xynyrZGPAnKqHGhxIo0k-25">
          <mxGeometry relative="1" as="geometry" />
        </mxCell>
        <mxCell id="xynyrZGPAnKqHGhxIo0k-8" value="Agent ID" style="rounded=1;whiteSpace=wrap;html=1;fillColor=#f8cecc;strokeColor=#b85450;" vertex="1" parent="1">
          <mxGeometry x="486" y="540" width="70" height="40" as="geometry" />
        </mxCell>
        <mxCell id="xynyrZGPAnKqHGhxIo0k-30" style="edgeStyle=orthogonalEdgeStyle;rounded=0;orthogonalLoop=1;jettySize=auto;html=1;entryX=0;entryY=0.5;entryDx=0;entryDy=0;" edge="1" parent="1" source="xynyrZGPAnKqHGhxIo0k-9" target="xynyrZGPAnKqHGhxIo0k-26">
          <mxGeometry relative="1" as="geometry" />
        </mxCell>
        <mxCell id="xynyrZGPAnKqHGhxIo0k-9" value="Agent ID" style="rounded=1;whiteSpace=wrap;html=1;fillColor=#f8cecc;strokeColor=#b85450;" vertex="1" parent="1">
          <mxGeometry x="486" y="600" width="70" height="40" as="geometry" />
        </mxCell>
        <mxCell id="xynyrZGPAnKqHGhxIo0k-12" style="edgeStyle=orthogonalEdgeStyle;rounded=0;orthogonalLoop=1;jettySize=auto;html=1;entryX=0;entryY=0.5;entryDx=0;entryDy=0;" edge="1" parent="1" source="xynyrZGPAnKqHGhxIo0k-11" target="xynyrZGPAnKqHGhxIo0k-1">
          <mxGeometry relative="1" as="geometry" />
        </mxCell>
        <mxCell id="xynyrZGPAnKqHGhxIo0k-11" value="Message" style="text;html=1;align=center;verticalAlign=middle;whiteSpace=wrap;rounded=0;" vertex="1" parent="1">
          <mxGeometry x="100" y="515" width="60" height="30" as="geometry" />
        </mxCell>
        <mxCell id="xynyrZGPAnKqHGhxIo0k-13" value="Publish" style="text;html=1;align=center;verticalAlign=middle;resizable=0;points=[];autosize=1;strokeColor=none;fillColor=none;" vertex="1" parent="1">
          <mxGeometry x="140" y="490" width="60" height="30" as="geometry" />
        </mxCell>
        <mxCell id="xynyrZGPAnKqHGhxIo0k-23" value="Agent" style="rounded=1;whiteSpace=wrap;html=1;fillColor=#dae8fc;strokeColor=#6c8ebf;" vertex="1" parent="1">
          <mxGeometry x="630" y="420" width="70" height="40" as="geometry" />
        </mxCell>
        <mxCell id="xynyrZGPAnKqHGhxIo0k-24" value="Agent" style="rounded=1;whiteSpace=wrap;html=1;fillColor=#dae8fc;strokeColor=#6c8ebf;" vertex="1" parent="1">
          <mxGeometry x="630" y="480" width="70" height="40" as="geometry" />
        </mxCell>
        <mxCell id="xynyrZGPAnKqHGhxIo0k-25" value="Agent" style="rounded=1;whiteSpace=wrap;html=1;fillColor=#dae8fc;strokeColor=#6c8ebf;" vertex="1" parent="1">
          <mxGeometry x="630" y="540" width="70" height="40" as="geometry" />
        </mxCell>
        <mxCell id="xynyrZGPAnKqHGhxIo0k-26" value="Agent" style="rounded=1;whiteSpace=wrap;html=1;fillColor=#dae8fc;strokeColor=#6c8ebf;" vertex="1" parent="1">
          <mxGeometry x="630" y="600" width="70" height="40" as="geometry" />
        </mxCell>
        <mxCell id="xynyrZGPAnKqHGhxIo0k-31" value="Deliver" style="text;html=1;align=center;verticalAlign=middle;resizable=0;points=[];autosize=1;strokeColor=none;fillColor=none;" vertex="1" parent="1">
          <mxGeometry x="570" y="400" width="60" height="30" as="geometry" />
        </mxCell>
        <mxCell id="xynyrZGPAnKqHGhxIo0k-32" value="Deliver" style="text;html=1;align=center;verticalAlign=middle;resizable=0;points=[];autosize=1;strokeColor=none;fillColor=none;" vertex="1" parent="1">
          <mxGeometry x="570" y="470" width="60" height="30" as="geometry" />
        </mxCell>
        <mxCell id="xynyrZGPAnKqHGhxIo0k-33" value="Deliver" style="text;html=1;align=center;verticalAlign=middle;resizable=0;points=[];autosize=1;strokeColor=none;fillColor=none;" vertex="1" parent="1">
          <mxGeometry x="570" y="530" width="60" height="30" as="geometry" />
        </mxCell>
        <mxCell id="xynyrZGPAnKqHGhxIo0k-34" value="Deliver" style="text;html=1;align=center;verticalAlign=middle;resizable=0;points=[];autosize=1;strokeColor=none;fillColor=none;" vertex="1" parent="1">
          <mxGeometry x="570" y="590" width="60" height="30" as="geometry" />
        </mxCell>
        <mxCell id="xynyrZGPAnKqHGhxIo0k-35" value="Mapping Topic to Agent ID" style="text;html=1;align=center;verticalAlign=middle;resizable=0;points=[];autosize=1;strokeColor=none;fillColor=none;" vertex="1" parent="1">
          <mxGeometry x="312.5" y="400" width="160" height="30" as="geometry" />
        </mxCell>
      </root>
    </mxGraphModel>
  </diagram>
</mxfile>
